<svg xmlns="http://www.w3.org/2000/svg" width="116.491" height="11.027"><path fill="#FBC60F" d="M19.694 1.491v3.267h.744c.939 0 1.368-.465 1.368-1.741v-.205h1.095v5.062h-1.095v-.212c0-1.271-.429-1.755-1.368-1.755h-.744v3.642h3.129c1.418 0 1.934-.937 2.107-2.739h1.138v3.911h-10.279v-1.172h.871c.536 0 .826-.142.826-1.087v-6.084c0-.679-.312-.887-1.032-.887h-.326c-.734 0-1.098.175-1.352.958l-2.834 8.272h-2.157l-1.642-5.395h-.032l-1.827 5.395h-2.178l-2.943-8.678c-.135-.424-.349-.552-.947-.552h-.216v-1.157h4.537v1.157h-.662c-.343 0-.479.208-.479.412 0 .155.054.349.136.566l1.966 5.793h.032l1.871-5.449-.26-.743c-.158-.457-.477-.579-.926-.579h-.38v-1.157h4.688v1.157h-.824c-.322 0-.445.139-.445.345 0 .16.077.381.13.533l1.72 5.791h.031l1.997-5.659c.061-.186.114-.345.114-.534 0-.246-.118-.476-.665-.476h-.754v-1.157h14.241v3.553l-1.172-.007c-.232-1.502-.373-2.389-2.451-2.389h-2.751zm17.066 9.23v-3.911h-1.205c-.154 1.787-.483 2.739-2.108 2.739h-2.36v-7.341c0-.565.236-.717.932-.717h.871v-1.157h-5.734v1.157h.91c.625 0 .835.208.835.676v6.696c0 .544-.296.686-.743.686h-1.001v1.172h9.603zm10.654 0v-3.911h-1.201c-.162 1.787-.494 2.739-2.096 2.739h-2.37v-7.341c0-.565.238-.717.921-.717h.882v-1.157h-5.749v1.157h.916c.622 0 .841.208.841.676v6.696c0 .544-.307.686-.74.686h-1.017v1.172h9.613zm7.904-9.604c-.091-.102-1.054-1.092-2.924-1.092-1.958 0-3.94.989-3.94 3.121 0 1.924 1.54 2.81 3.312 3.189l1.471.305c1.326.286 2.21.687 2.21 1.606 0 .7-.738 1.453-2.21 1.453-2.052 0-3.259-1.146-3.518-2.891h-1.196v3.911h1.062l.35-.938c.245.223 1.25 1.244 3.15 1.244 2.414 0 4.243-1.08 4.243-3.207 0-2.055-1.708-2.938-3.788-3.35-.368-.099-.702-.156-1.09-.244-1.291-.275-2.117-.598-2.117-1.524 0-.8.852-1.354 2.125-1.354 1.923 0 2.66 1.228 3.054 2.53h1.17v-3.542h-.846l-.518.783zm12.036 9.591v-1.172h-.788c-.722 0-.989-.211-.989-.801v-2.835h.642c.978 0 1.401.427 1.401 1.528v.343h1.086v-4.774h-1.086v.21c0 .795-.298 1.539-1.309 1.539h-.734v-3.271h2.043c2.303 0 2.543 1.155 2.699 2.388h1.12v-3.547h-9.832v1.158h1.04c.469 0 .738.212.738.586v6.711c0 .435-.244.765-.794.765h-.984v1.172h5.747zm43.485-10.708c-3.413 0-5.663 2.387-5.663 5.508 0 3.118 2.25 5.52 5.663 5.52 3.396 0 5.651-2.401 5.651-5.52.001-3.121-2.255-5.508-5.651-5.508m0 1.228c2.457 0 3.197 2.043 3.197 4.28 0 2.243-.74 4.288-3.197 4.288-2.475 0-3.207-2.045-3.207-4.288 0-2.238.731-4.28 3.207-4.28m-9.584-.062c-.216-.203-1.201-1.166-3.119-1.166-3.069 0-4.997 2.348-4.997 5.508 0 3.192 1.956 5.52 4.997 5.52 1.959 0 3.019-.896 3.259-1.112l.583.793h1.063v-3.606c0-.61.228-.776.838-.776h.283v-1.165h-4.791v1.165h.705c.517 0 .832.23.832.739v.602c0 1.188-.734 2.016-2.322 2.016-1.995 0-2.991-1.786-2.991-4.176 0-2.35 1.001-4.158 2.931-4.158 2.013 0 2.692 1.882 2.926 2.513h1.289v-3.547h-1.096l-.39.85zm-8.636 7.103v.283c0 1.792-.856 2.476-2.152 2.476-1.521 0-2.026-.727-2.026-2.144v-.541c0-1.786-.766-2.505-2.507-2.505h-.824v3.141c0 .41.201.558.651.558h1.141v1.172h-10.376v-1.173h1.155c.317 0 .432-.067.432-.267 0-.089-.024-.25-.091-.418l-.545-1.482h-3.705s-.452 1.238-.532 1.439c-.052.16-.09.287-.09.442 0 .218.18.285.484.285h1.102v1.172h-4.883v-1.171c.827 0 1.352-.112 1.648-.841l3.308-8.379h1.999l3.386 8.379c.286.736.823.841 1.655.841h.419c.442 0 .65-.147.65-.558v-6.935c0-.42-.162-.568-.65-.568h-1.092v-1.159h6.82c2.269 0 3.337 1.076 3.337 2.698 0 2.012-2.006 2.403-2.942 2.453v.026c1.095.083 2.021.54 2.021 2.134v.613c0 1.061.229 1.296.604 1.296.372 0 .571-.285.571-.984v-.283h1.032zm-15.57-2.055l-1.395-3.775h-.048l-1.401 3.775h2.844zm12.099-3.138c0-.914-.653-1.602-2.104-1.602h-1.936v3.206h1.936c1.339 0 2.104-.598 2.104-1.604"/></svg>