<?xml version="1.0" encoding="utf-8"?>
<!-- Generator: Adobe Illustrator 17.0.2, SVG Export Plug-In . SVG Version: 6.00 Build 0)  -->
<!DOCTYPE svg PUBLIC "-//W3C//DTD SVG 1.1//EN" "http://www.w3.org/Graphics/SVG/1.1/DTD/svg11.dtd">
<svg version="1.1" id="Layer_1" xmlns="http://www.w3.org/2000/svg" xmlns:xlink="http://www.w3.org/1999/xlink" x="0px" y="0px"
	 width="116.491px" height="11.027px" viewBox="0 0 116.491 11.027" enable-background="new 0 0 116.491 11.027"
	 xml:space="preserve">
<g>
	<path fill="#FBC60F" d="M19.694,1.491v3.267h0.744c0.939,0,1.368-0.465,1.368-1.741V2.812h1.095v5.062h-1.095V7.662
		c0-1.271-0.429-1.755-1.368-1.755h-0.744v3.642h3.129c1.418,0,1.934-0.937,2.107-2.739h1.138v3.911H15.789V9.549h0.871
		c0.536,0,0.826-0.142,0.826-1.087V2.378c0-0.679-0.312-0.887-1.032-0.887h-0.326c-0.734,0-1.098,0.175-1.352,0.958l-2.834,8.272
		H9.785L8.143,5.326H8.111l-1.827,5.395H4.106L1.163,2.043C1.028,1.619,0.814,1.491,0.216,1.491H0V0.334h4.537v1.157H3.875
		c-0.343,0-0.479,0.208-0.479,0.412c0,0.155,0.054,0.349,0.136,0.566l1.966,5.793H5.53l1.871-5.449L7.141,2.07
		C6.983,1.613,6.664,1.491,6.215,1.491H5.835V0.334h4.688v1.157H9.699c-0.322,0-0.445,0.139-0.445,0.345
		c0,0.16,0.077,0.381,0.13,0.533l1.72,5.791h0.031l1.997-5.659c0.061-0.186,0.114-0.345,0.114-0.534
		c0-0.246-0.118-0.476-0.665-0.476h-0.754V0.334h14.241v3.553L24.896,3.88c-0.232-1.502-0.373-2.389-2.451-2.389H19.694z
		 M36.76,10.721V6.81h-1.205c-0.154,1.787-0.483,2.739-2.108,2.739h-2.36V2.208c0-0.565,0.236-0.717,0.932-0.717h0.871V0.334h-5.734
		v1.157h0.91c0.625,0,0.835,0.208,0.835,0.676v6.696c0,0.544-0.296,0.686-0.743,0.686h-1.001v1.172H36.76z M47.414,10.721V6.81
		h-1.201c-0.162,1.787-0.494,2.739-2.096,2.739h-2.37V2.208c0-0.565,0.238-0.717,0.921-0.717h0.882V0.334h-5.749v1.157h0.916
		c0.622,0,0.841,0.208,0.841,0.676v6.696c0,0.544-0.307,0.686-0.74,0.686h-1.017v1.172H47.414z M55.318,1.117
		c-0.091-0.102-1.054-1.092-2.924-1.092c-1.958,0-3.94,0.989-3.94,3.121c0,1.924,1.54,2.81,3.312,3.189
		c0.582,0.124,0.932,0.194,1.471,0.305c1.326,0.286,2.21,0.687,2.21,1.606c0,0.7-0.738,1.453-2.21,1.453
		c-2.052,0-3.259-1.146-3.518-2.891h-1.196v3.911h1.062l0.35-0.938c0.245,0.223,1.25,1.244,3.15,1.244
		c2.414,0,4.243-1.08,4.243-3.207c0-2.055-1.708-2.938-3.788-3.35c-0.368-0.099-0.702-0.156-1.09-0.244
		c-1.291-0.275-2.117-0.598-2.117-1.524c0-0.8,0.852-1.354,2.125-1.354c1.923,0,2.66,1.228,3.054,2.53h1.17V0.334h-0.846
		L55.318,1.117z M67.354,10.708V9.536h-0.788c-0.722,0-0.989-0.211-0.989-0.801V5.9h0.642c0.978,0,1.401,0.427,1.401,1.528v0.343
		h1.086V2.997H67.62v0.21c0,0.795-0.298,1.539-1.309,1.539h-0.734V1.475h2.043c2.303,0,2.543,1.155,2.699,2.388h1.12V0.316h-9.832
		v1.158h1.04c0.469,0,0.738,0.212,0.738,0.586v6.711c0,0.435-0.244,0.765-0.794,0.765h-0.984v1.172H67.354z M110.839,0
		c-3.413,0-5.663,2.387-5.663,5.508c0,3.118,2.25,5.52,5.663,5.52c3.396,0,5.651-2.401,5.651-5.52
		C116.491,2.387,114.235,0,110.839,0 M110.839,1.228c2.457,0,3.197,2.043,3.197,4.28c0,2.243-0.74,4.288-3.197,4.288
		c-2.475,0-3.207-2.045-3.207-4.288C107.632,3.27,108.363,1.228,110.839,1.228 M101.255,1.166C101.039,0.963,100.054,0,98.136,0
		c-3.069,0-4.997,2.348-4.997,5.508c0,3.192,1.956,5.52,4.997,5.52c1.959,0,3.019-0.896,3.259-1.112l0.583,0.793h1.063V7.103
		c0-0.61,0.228-0.776,0.838-0.776h0.283V5.162h-4.791v1.165h0.705c0.517,0,0.832,0.23,0.832,0.739v0.602
		c0,1.188-0.734,2.016-2.322,2.016c-1.995,0-2.991-1.786-2.991-4.176c0-2.35,1.001-4.158,2.931-4.158
		c2.013,0,2.692,1.882,2.926,2.513h1.289V0.316h-1.096L101.255,1.166z M92.619,8.269v0.283c0,1.792-0.856,2.476-2.152,2.476
		c-1.521,0-2.026-0.727-2.026-2.144V8.343c0-1.786-0.766-2.505-2.507-2.505h-0.824v3.141c0,0.41,0.201,0.558,0.651,0.558h1.141
		v1.172H76.526V9.536h1.155c0.317,0,0.432-0.067,0.432-0.267c0-0.089-0.024-0.25-0.091-0.418c-0.052-0.139-0.545-1.482-0.545-1.482
		h-3.705c0,0-0.452,1.238-0.532,1.439c-0.052,0.16-0.09,0.287-0.09,0.442c0,0.218,0.18,0.285,0.484,0.285h1.102v1.172h-4.883V9.536
		c0.827,0,1.352-0.112,1.648-0.841l3.308-8.379h1.999l3.386,8.379c0.286,0.736,0.823,0.841,1.655,0.841h0.419
		c0.442,0,0.65-0.147,0.65-0.558V2.043c0-0.42-0.162-0.568-0.65-0.568h-1.092V0.316h6.82c2.269,0,3.337,1.076,3.337,2.698
		c0,2.012-2.006,2.403-2.942,2.453v0.026c1.095,0.083,2.021,0.54,2.021,2.134V8.24c0,1.061,0.229,1.296,0.604,1.296
		c0.372,0,0.571-0.285,0.571-0.984V8.269H92.619z M77.049,6.214l-1.395-3.775h-0.048l-1.401,3.775H77.049z M89.148,3.076
		c0-0.914-0.653-1.602-2.104-1.602h-1.936V4.68h1.936C88.383,4.68,89.148,4.082,89.148,3.076"/>
</g>
</svg>
